<svg version="1.2" xmlns="http://www.w3.org/2000/svg" viewBox="0 0 550 400" width="550" height="400"><style>.a{fill:#101820}</style><path fill-rule="evenodd" class="a" d="m199.3 200c0-41.8 33.9-75.7 75.7-75.7 41.8 0 75.7 33.9 75.7 75.7 0 41.8-33.9 75.7-75.7 75.7-41.8 0-75.7-33.9-75.7-75.7zm77.9 68.5q3.6 0 5.6-2.9l44.5-60.9q2.6-3.4 0.7-7.3-2-3.8-6.2-3.8h-43.9q-2.9 0-5 2-2 2.2-2 4.9 0 3 2 5 2.1 2.1 5 2.1h30l-34.2 46.9q-21.2-1.4-35.8-16.9-14.7-15.6-14.7-37.1 0-22.2 15.9-38 15.8-15.9 38.1-15.9 16.7 0 29.1 7.4 2.4 1.5 5.3 0.8 2.8-0.8 4.2-3.2 1.5-2.6 0.8-5.3-0.7-2.8-3.2-4.4-15.7-9.2-36.2-9.2-28.1 0-48 19.9-19.9 19.9-19.9 47.9 0 28.2 19.9 48.1 19.9 19.9 48 19.9z"/><path fill-rule="evenodd" class="a" d="m146 200c0-71.2 57.8-129 129-129 71.2 0 129 57.8 129 129 0 71.2-57.8 129-129 129-71.2 0-129-57.8-129-129zm138.5-116.9l-3.8-0.5c0 0.3 0.1 0.5 0.3 0.7 0.2 0.4 0.5 0.8 0.4 1.3l-2.7 22.7c-0.2 1-1.1 1.1-1.2 1.7l16.2 2c0.9 0.1 1.2-0.7 1.3-1.5-0.3 0-0.4 0.1-0.5 0.2q-0.1 0.1-0.3 0.2c-0.6 0.3-1.4 0.3-2 0.2l-11.8-1.4 2.9-23.8c0.1-1.1 1.2-1.2 1.2-1.8zm-23.9 2.2l2.6 22.6c0.1 0.6-0.2 1-0.4 1.3-0.2 0.2-0.4 0.5-0.3 0.7l3.8-0.4c-0.1-0.6-1.1-0.8-1.2-1.8l-2.7-22.7c0-0.5 0.2-0.9 0.5-1.2 0.2-0.3 0.3-0.5 0.3-0.8l-3.8 0.5c0.1 0.6 1 0.7 1.2 1.8zm-38.3 9.7c0.3 0.5 1.2 0.4 1.6 1.4l5.7 14.3c2.3 6.1 7.6 7.4 13.1 5.2 4.9-1.9 6.7-7.2 4.8-12.2l-5.7-14.4c-0.2-0.5 0-0.9 0.1-1.3 0.1-0.3 0.2-0.5 0.1-0.8l-2.6 1.1c0.2 0.5 1.2 0.4 1.6 1.4l5.6 14.2c2 5.1-0.2 9.8-4.2 11.4-4.7 1.8-9.1-0.2-11-5.1l-5.7-14.5c-0.2-0.6-0.1-1 0.1-1.4 0.1-0.3 0.2-0.5 0.1-0.7zm92.9-4.7c0.1 0.4 0.3 0.8 0 1.4l-9.3 20.8c-0.5 0.9-1.4 0.8-1.7 1.3l14.9 6.7c0.9 0.4 1.4-0.4 1.7-1-0.2-0.1-0.3-0.1-0.5 0q-0.1 0-0.4 0.1c-0.7 0.1-1.4-0.1-2-0.4l-10.8-4.9 9.9-21.8c0.4-1 1.4-0.8 1.7-1.4l-3.5-1.5c-0.1 0.2-0.1 0.4 0 0.7zm26.8 48.3c0.7 0.6 1.4 0 1.9-0.5-0.2-0.2-0.3-0.2-0.5-0.2q-0.1 0.1-0.3 0c-0.7-0.1-1.3-0.5-1.8-0.9l-10.4-9.4 9.7-10.7 8.2 7.4c0.5 0.4 0.5 0.8 0.5 1.2 0.1 0.3 0.1 0.6 0.3 0.8l1.7-2c-0.1-0.2-0.4-0.2-0.7-0.2-0.4 0.1-0.9 0.1-1.3-0.3l-8.2-7.4 6.7-7.5 9.2 8.3c0.5 0.5 0.9 1.1 1.1 1.8q0.1 0.1 0.1 0.3c0 0.2 0 0.3 0.2 0.5 0.5-0.6 1-1.4 0.3-2l-12.6-11.3c-0.2 0.2-0.2 0.4-0.2 0.7 0 0.4 0 0.9-0.4 1.3l-15.2 17c-0.7 0.7-1.6 0.3-2 0.7zm-143.7-9.1c4.9 5.6 13.1 6.5 18.3 1.9 2.2-1.9 4.3-4.7 5-7.5l-7.4-8.4c-0.4-0.5-0.4-0.9-0.4-1.3 0.1-0.4 0.1-0.6-0.1-0.8l-2.9 2.6c0.3 0.4 1.3 0 1.9 0.7l7.2 8.2c-0.4 1.9-1.8 4.2-3.7 5.9-4.4 3.8-11.7 2.6-16.3-2.7-4.7-5.3-5-12.7-0.6-16.5 2.9-2.6 5.8-3.2 8.1-2.6q0.1 0 0.2 0.1c0.4 0.1 0.8 0.2 0.9 0h0.1l-1-1.2c-0.4-0.4-0.9-0.5-1.4-0.4-2 0.4-4.3 0.8-7.4 3.5-5.3 4.6-5.5 12.9-0.5 18.5zm76.7 150.3c44 0 79.7-35.7 79.7-79.7 0-44.1-35.7-79.8-79.7-79.8-44.1 0-79.7 35.7-79.7 79.8 0 44 35.6 79.7 79.7 79.7zm85 1.6c0.7-0.6 0.2-1.4-0.3-1.9-0.2 0.1-0.2 0.3-0.2 0.4q0 0.2-0.1 0.4c-0.1 0.6-0.6 1.2-1.1 1.7l-10.4 9.3-9.6-10.8 8.2-7.4c0.4-0.4 0.9-0.3 1.3-0.3 0.2 0 0.5 0 0.7-0.2l-1.8-2c-0.2 0.2-0.2 0.5-0.2 0.8 0 0.4-0.1 0.8-0.5 1.2l-8.2 7.4-6.7-7.4 9.2-8.3c0.5-0.5 1.1-0.8 1.8-1q0.2 0 0.4 0c0.1 0 0.3 0 0.4-0.1-0.5-0.6-1.2-1.2-1.9-0.5l-12.5 11.3c0.4 0.4 1.3 0 1.9 0.8l15.3 16.9c0.4 0.4 0.4 0.9 0.4 1.3 0 0.3 0 0.6 0.2 0.8zm-153.3 11.8l7.4-8.5c0.7-0.7 1.6-0.3 2-0.7l-3-2.6c-0.1 0.2-0.1 0.5-0.1 0.8 0 0.4 0 0.8-0.4 1.3l-7.1 8.1c-2-0.1-4.4-1.2-6.4-2.9-4.3-3.8-4.1-11.2 0.6-16.5 4.7-5.3 12-6.6 16.3-2.8 2.9 2.6 3.9 5.4 3.6 7.8q0 0.1 0 0.2c-0.1 0.4-0.1 0.8 0 0.9l0.1 0.1 1-1.2c0.4-0.4 0.5-0.9 0.3-1.4-0.7-2-1.4-4.2-4.5-6.9-5.2-4.6-13.5-3.7-18.4 1.9-4.9 5.6-4.7 13.8 0.5 18.4 2.2 1.9 5.2 3.6 8.1 4zm25.3-12.7c-0.1 0.2 0 0.5 0.1 0.8 0.1 0.3 0.3 0.8 0.1 1.3l-5.7 14.4c-2.3 6 0.6 10.5 6.1 12.7 4.9 2 9.9-0.7 11.8-5.7l5.7-14.4c0.3-0.9 1.4-0.8 1.6-1.4l-2.7-1c-0.1 0.2 0 0.5 0.1 0.8 0.2 0.3 0.3 0.8 0.1 1.3l-5.6 14.3c-2 5-6.8 7-10.7 5.5-4.8-1.9-6.6-6.3-4.7-11.3l5.8-14.5c0.3-0.9 1.3-0.8 1.6-1.4zm74 7.2l9.3 20.8c0.3 0.6 0.1 1 0 1.4-0.1 0.3-0.1 0.5 0 0.8l14.8-6.8c0.9-0.3 0.6-1.2 0.4-1.9-0.4 0.1-0.3 0.4-0.5 0.7-0.4 0.6-1 1-1.6 1.3l-10.8 4.8-9.9-21.8c-0.2-0.6-0.1-1 0-1.4 0.1-0.3 0.2-0.5 0.1-0.8l-3.5 1.6c0.3 0.5 1.2 0.4 1.7 1.3zm-43.3 3.3c0.2 0.4 0.5 0.7 0.4 1.3l-2.6 22.7c-0.1 1-1.1 1.2-1.2 1.7l3.8 0.5c0.1-0.3-0.1-0.5-0.3-0.7-0.2-0.4-0.5-0.7-0.4-1.3l2.6-22.7c0.1-1 1.2-1.1 1.2-1.7l-3.8-0.5c0 0.3 0.1 0.5 0.3 0.7zm18.6-0.3l-3.8 0.5c0 0.6 1 0.7 1.1 1.8l2.8 22.6c0.1 0.6-0.2 1-0.4 1.3-0.2 0.2-0.3 0.4-0.3 0.7l16.2-2c1-0.1 1-1 0.9-1.8-0.4 0.1-0.3 0.3-0.7 0.5-0.5 0.5-1.2 0.7-1.9 0.8l-11.7 1.4-3-23.8c0-0.5 0.2-0.9 0.5-1.3 0.2-0.2 0.3-0.4 0.3-0.7z"/><g style="opacity:0"></g></svg>